<svg xmlns="http://www.w3.org/2000/svg" viewBox="0 0 116.08 116.08"><title>Asset 10</title><g id="Layer_2" data-name="Layer 2"><g id="Layer_1-2" data-name="Layer 1"><circle cx="58.04" cy="58.04" r="58.04" fill="#a18038"/><path d="M58.87,90.24,35,77.51,52.94,44l12.14-7.52,11.25,6,.44,14.24ZM37.46,76.77l20.67,11L75,56.33,74.57,43.6l-9.43-5L54.29,45.28Z" fill="#fff"/><path d="M63.85,57.2a4.85,4.85,0,0,1-2.32-.59,4.94,4.94,0,1,1,6.69-2h0A5,5,0,0,1,63.85,57.2Zm0-8.1a3.15,3.15,0,1,0,2.78,4.64h0a3.15,3.15,0,0,0-2.78-4.64Z" fill="#fff"/><rect x="60.09" y="38.31" width="21.48" height="1.79" transform="translate(2.87 83.2) rotate(-61.88)" fill="#fff"/></g></g></svg>