<svg xmlns="http://www.w3.org/2000/svg" viewBox="0 0 116.08 116.08"><title>Asset 11</title><g id="Layer_2" data-name="Layer 2"><g id="Layer_1-2" data-name="Layer 1"><circle cx="58.04" cy="58.04" r="58.04" fill="#a18038"/><path d="M45.08,86H29.49V60.82l1,0c1.33.06,2.65.09,3.94.09a84.69,84.69,0,0,0,9.69-.56l1-.12ZM31.3,84.22h12V62.31a87.92,87.92,0,0,1-8.89.46c-1,0-2,0-3.08-.06Z" fill="#fff"/><path d="M30.5,53.29h-.9V51.48h.9a81.15,81.15,0,0,0,54.08-19.9l.69-.59,1.18,1.36-.68.6C70.47,46.26,51.36,53.29,30.5,53.29Z" fill="#fff"/><path d="M65.76,86H50.17V59.46l.72-.14a83,83,0,0,0,13.64-4l1.23-.48ZM52,84.22H64V57.47a84.44,84.44,0,0,1-12,3.47Z" fill="#fff"/><path d="M86.44,86H70.84V52.54l.5-.25A83.55,83.55,0,0,0,85,43.75l1.46-1.12ZM72.65,84.22h12V46.29a84.56,84.56,0,0,1-12,7.37Z" fill="#fff"/><polygon points="85.72 40.96 83.91 40.81 84.63 32.57 76.39 31.85 76.55 30.05 86.59 30.93 85.72 40.96" fill="#fff"/></g></g></svg>