<svg xmlns="http://www.w3.org/2000/svg" viewBox="0 0 116.08 116.08"><title>Asset 5</title><g id="Layer_2" data-name="Layer 2"><g id="Layer_1-2" data-name="Layer 1"><circle cx="58.04" cy="58.04" r="58.04" fill="#a18038"/><path d="M58,83.43l-.67-.61A103.76,103.76,0,0,1,47.6,72.36c-6.57-8.1-9.89-15-9.89-20.51h2c0,10.81,15,25.66,18.33,28.86,3.38-3.17,18.33-17.86,18.33-28.86h2c0,5.6-3.32,12.53-9.89,20.6a102.62,102.62,0,0,1-9.77,10.38Z" fill="#fff"/><path d="M78.37,51.85h-2a18.33,18.33,0,0,0-36.66,0h-2a20.33,20.33,0,0,1,40.66,0Z" fill="#fff"/><path d="M58,88.56a48.12,48.12,0,0,1-12.21-1.39c-3.77-1-5.69-2.47-5.69-4.26,0-3.42,7.27-5.1,14.08-5.53l.12,2c-8.51.53-12.19,2.6-12.19,3.53,0,1.24,5.61,3.65,15.89,3.65s15.9-2.41,15.9-3.65c0-.93-3.68-3-12.17-3.53l.13-2c6.79.42,14,2.1,14,5.52,0,1.79-1.92,3.22-5.69,4.26A48.12,48.12,0,0,1,58,88.56Z" fill="#fff"/><path d="M58,60.66a9.15,9.15,0,1,1,9.15-9.15A9.15,9.15,0,0,1,58,60.66Zm0-16.3a7.15,7.15,0,1,0,7.15,7.15A7.16,7.16,0,0,0,58,44.36Z" fill="#fff"/></g></g></svg>