<svg xmlns="http://www.w3.org/2000/svg" viewBox="0 0 116.08 116.08"><title>Asset 9</title><g id="Layer_2" data-name="Layer 2"><g id="Layer_1-2" data-name="Layer 1"><circle cx="58.04" cy="58.04" r="58.04" fill="#a18038"/><path d="M58.14,83A2.34,2.34,0,0,1,56,79.8l5.32-14.42L34,74,21.57,59.86l7.87-3.12,8.17,5.94L79.12,45.62c1.62-.67,5.76-.5,12.29.49a3.63,3.63,0,0,1,2.44,1.5,3.68,3.68,0,0,1,.59,2.81l-.59,2.95L76.22,61l-9.34,18.7L59,82.8A2.34,2.34,0,0,1,58.14,83Zm6.43-20.72L57.84,80.5a.34.34,0,0,0,.44.43l7.15-2.78L74.76,59.5,92.09,52,92.47,50a1.62,1.62,0,0,0-1.36-1.94c-5.82-.88-10-1.12-11.23-.62L37.34,65,29.15,59,25,60.68l9.68,11Z" fill="#fff"/><path d="M59.07,55.69,46.62,49.5a2,2,0,0,1,.14-3.68L54,42.91l18.3,5.84-.61,1.91L54,45l-6.52,2.64L60,53.9Z" fill="#fff"/></g></g></svg>