<svg xmlns="http://www.w3.org/2000/svg" viewBox="0 0 116.08 116.08"><title>Asset 7</title><g id="Layer_2" data-name="Layer 2"><g id="Layer_1-2" data-name="Layer 1"><circle cx="58.04" cy="58.04" r="58.04" fill="#a18038"/><path d="M62.33,82l-.77-5.73,18.19-29.7A3.65,3.65,0,1,1,86,50.4L67.78,80.1Zm1.05-5.34.4,3,2.83-1L84.47,49.49a1.85,1.85,0,0,0,.23-1.43,1.88,1.88,0,0,0-2.28-1.4,1.88,1.88,0,0,0-1.17.85Z" fill="#fff"/><polygon points="77.06 86.04 38.71 86.04 38.71 33.96 77.06 33.96 77.06 54.1 75.3 54.1 75.3 35.71 40.46 35.71 40.46 84.29 75.3 84.29 75.3 64.7 77.06 64.7 77.06 86.04" fill="#fff"/><rect x="45.92" y="41.56" width="23.92" height="1.75" fill="#fff"/><rect x="45.92" y="48.48" width="23.92" height="1.75" fill="#fff"/><rect x="45.92" y="55.41" width="23.92" height="1.75" fill="#fff"/></g></g></svg>