<svg xmlns="http://www.w3.org/2000/svg" viewBox="0 0 116.08 116.08"><title>Asset 4</title><g id="Layer_2" data-name="Layer 2"><g id="Layer_1-2" data-name="Layer 1"><circle cx="58.04" cy="58.04" r="58.04" fill="#a18038"/><path d="M59.14,87.55h-1A27.93,27.93,0,1,1,86.06,59.62v1h-2v-1A25.92,25.92,0,1,0,58.13,85.54h1Z" fill="#fff"/><polygon points="85.02 61.97 75.71 52.67 77.13 51.25 85.02 59.13 92.98 51.16 94.4 52.58 85.02 61.97" fill="#fff"/><polygon points="69.09 72 57.13 60.04 57.13 42.45 59.14 42.45 59.14 59.2 70.52 70.58 69.09 72" fill="#fff"/><circle cx="67.98" cy="84.62" r="1.67" fill="#fff"/><circle cx="77.13" cy="78.56" r="1.67" fill="#fff"/><circle cx="83.39" cy="69.25" r="1.67" fill="#fff"/></g></g></svg>