<?xml version="1.0" encoding="UTF-8"?>
<svg xmlns="http://www.w3.org/2000/svg" width="54.925" height="31.15" viewBox="0 0 54.925 31.15">
  <g id="Group_5" data-name="Group 5" transform="translate(0 0)">
    <g id="Group_4" data-name="Group 4">
      <path id="Path_17" data-name="Path 17" d="M593.841,2439.047a14.99,14.99,0,0,0-3.068-4.948,14.677,14.677,0,0,0-4.833-3.389,15.863,15.863,0,0,0-18.072,3.732,15.445,15.445,0,0,0-3.092,5.109,16.685,16.685,0,0,0-1.052,5.793,15.883,15.883,0,0,0,1.052,5.727,14.994,14.994,0,0,0,3,4.857,14.743,14.743,0,0,0,4.763,3.389,15.174,15.174,0,0,0,6.345,1.282,16.468,16.468,0,0,0,6.206-1.17,16.127,16.127,0,0,0,5.109-3.228,14.813,14.813,0,0,0,3.459-4.948,15.644,15.644,0,0,0,1.258-6.321A16.353,16.353,0,0,0,593.841,2439.047Zm-2.75,11.063a13.451,13.451,0,0,1-2.316,4.281,12.649,12.649,0,0,1-3.879,3.207,12.266,12.266,0,0,1-5.392,1.4,10.307,10.307,0,0,1-5.071-1.283,13.85,13.85,0,0,1-4.016-3.344,16.214,16.214,0,0,1-2.661-4.6,14.176,14.176,0,0,1-.964-5.06,14.734,14.734,0,0,1,.827-4.765,14.284,14.284,0,0,1,2.407-4.4,12.993,12.993,0,0,1,3.834-3.229,10.227,10.227,0,0,1,5.092-1.261,10.774,10.774,0,0,1,5.3,1.306,13.775,13.775,0,0,1,4.062,3.39,15.7,15.7,0,0,1,2.616,4.648,14.526,14.526,0,0,1,.16,9.713Z" transform="translate(-563.724 -2429.449)" fill="#fff"></path>
      <path id="Path_18" data-name="Path 18" d="M618.421,2459.957a1.72,1.72,0,0,1-1.489-.87,8.128,8.128,0,0,1-.894-1.786l-10.259-27.667-10.49,27.943a6.206,6.206,0,0,1-.939,1.67,1.567,1.567,0,0,1-1.171.71h-.227v.458h5.084v-.458h-.227a.941.941,0,0,1-.689-.343,1.322,1.322,0,0,1-.321-.94,1.961,1.961,0,0,1,.137-.685l3.06-8.407,1.384-4.1,3.529-9.574,2.859,7.762.046.126.621,1.686h-.011l2.4,6.656.04.107,2.195,5.925a2.5,2.5,0,0,1,.137.779q0,1.008-1.1,1.007h-.23v.458h6.779v-.458Z" transform="translate(-563.724 -2429.449)" fill="#fff"></path>
    </g>
  </g>
</svg>
