<?xml version="1.0" encoding="UTF-8"?>
<svg xmlns="http://www.w3.org/2000/svg" width="141.796" height="45.104" viewBox="0 0 141.796 45.104">
  <g id="Group_2" data-name="Group 2" transform="translate(-101.899 153.145)">
    <path id="Path_1" data-name="Path 1" d="M111.529-153.087a9.531,9.531,0,0,1,3.908.768,8.929,8.929,0,0,1,2.945,2.065,9.138,9.138,0,0,1,1.87,3.015,9.971,9.971,0,0,1,.656,3.587,9.527,9.527,0,0,1-.767,3.852,9.027,9.027,0,0,1-2.107,3.015,9.879,9.879,0,0,1-3.113,1.968,10.06,10.06,0,0,1-3.782.712,9.23,9.23,0,0,1-3.866-.782,8.93,8.93,0,0,1-2.9-2.065,9.116,9.116,0,0,1-1.828-2.959,9.653,9.653,0,0,1-.643-3.489,10.15,10.15,0,0,1,.643-3.532,9.422,9.422,0,0,1,1.884-3.112,9.451,9.451,0,0,1,3.028-2.205A9.5,9.5,0,0,1,111.529-153.087Zm-.014,18a7.5,7.5,0,0,0,3.286-.851,7.7,7.7,0,0,0,2.363-1.955,8.156,8.156,0,0,0,1.412-2.61,9.1,9.1,0,0,0,.462-2.818,9.145,9.145,0,0,0-.56-3.1,9.549,9.549,0,0,0-1.593-2.834,8.407,8.407,0,0,0-2.476-2.065,6.565,6.565,0,0,0-3.23-.8,6.237,6.237,0,0,0-3.1.767,7.942,7.942,0,0,0-2.335,1.967,8.721,8.721,0,0,0-1.468,2.68,8.988,8.988,0,0,0-.5,2.9,8.658,8.658,0,0,0,.587,3.085,9.9,9.9,0,0,0,1.622,2.805,8.443,8.443,0,0,0,2.446,2.038A6.28,6.28,0,0,0,111.515-135.082Z" transform="translate(0 -0.003)" fill="#fff"></path>
    <path id="Path_2" data-name="Path 2" d="M128.294-134.65h.139v.28h-3.992v-.28h.14a.532.532,0,0,0,.39-.168,1.747,1.747,0,0,0,.293-.39,1.725,1.725,0,0,0,.182-.488,2.377,2.377,0,0,0,.055-.488v-14.878a2.093,2.093,0,0,0-.055-.447,1.747,1.747,0,0,0-.182-.474,1.494,1.494,0,0,0-.293-.377.529.529,0,0,0-.363-.153h-.139v-.279h3.992v.279h-.14a.561.561,0,0,0-.39.153,1.516,1.516,0,0,0-.293.377,2.071,2.071,0,0,0-.2.474,1.7,1.7,0,0,0-.07.447v6.476l7.09-7.034a.664.664,0,0,0,.168-.447q0-.447-.334-.447h-.14v-.279h3.4v.279h-.139a1.466,1.466,0,0,0-.809.279,5.59,5.59,0,0,0-.838.7l-5.862,5.834,6.169,9.35a3.1,3.1,0,0,0,.251.335,6.038,6.038,0,0,0,.544.587,3.9,3.9,0,0,0,.726.544,1.615,1.615,0,0,0,.824.237v.28h-.669a8.5,8.5,0,0,1-1.41-.1,3.243,3.243,0,0,1-.991-.321,2.909,2.909,0,0,1-.739-.558,6.08,6.08,0,0,1-.656-.838l-5.415-8.178-1.173,1.2v6.978a1.767,1.767,0,0,0,.07.474,2.979,2.979,0,0,0,.181.488,1.409,1.409,0,0,0,.279.4A.534.534,0,0,0,128.294-134.65Z" transform="translate(-1.078 -0.017)" fill="#fff"></path>
    <path id="Path_3" data-name="Path 3" d="M141.035-134.65h.139a.557.557,0,0,0,.39-.153,1.477,1.477,0,0,0,.293-.377,2.115,2.115,0,0,0,.2-.474,1.772,1.772,0,0,0,.07-.474v-14.934a1.7,1.7,0,0,0-.07-.447,2.116,2.116,0,0,0-.2-.474,1.494,1.494,0,0,0-.293-.377.561.561,0,0,0-.39-.153h-.139v-.279h4.019v.279h-.14a.561.561,0,0,0-.39.153,1.283,1.283,0,0,0-.279.377,2.573,2.573,0,0,0-.182.474,1.69,1.69,0,0,0-.07.447V-135.4h6.113a1.666,1.666,0,0,0,.921-.251,2.345,2.345,0,0,0,.656-.628,2.686,2.686,0,0,0,.391-.809,2.9,2.9,0,0,0,.126-.8h.279v3.517H141.035Z" transform="translate(-1.872 -0.017)" fill="#fff"></path>
    <path id="Path_4" data-name="Path 4" d="M165.285-134.667h.14c.447,0,.669-.2.669-.614a1.493,1.493,0,0,0-.084-.474l-2.512-6.782h-4.885l-2.429,6.671a1.21,1.21,0,0,0-.083.419.805.805,0,0,0,.2.572.57.57,0,0,0,.419.209h.139v.28h-3.1v-.28h.14a.953.953,0,0,0,.711-.432,3.747,3.747,0,0,0,.572-1.019l6.392-17.027,6.253,16.859a4.889,4.889,0,0,0,.545,1.088,1.046,1.046,0,0,0,.906.53h.14v.28h-4.131Zm-6.392-8.82h4.3l-2.15-5.834Z" transform="translate(-2.48 0)" fill="#fff"></path>
    <path id="Path_5" data-name="Path 5" d="M183.115-134.65h.14a.526.526,0,0,0,.363-.153,1.432,1.432,0,0,0,.293-.39,1.9,1.9,0,0,0,.181-.5,2.383,2.383,0,0,0,.056-.488v-7.593h-8.932v7.593a2.317,2.317,0,0,0,.056.488,1.97,1.97,0,0,0,.168.488,1.655,1.655,0,0,0,.265.39.488.488,0,0,0,.377.168h.14v.28h-3.909v-.28h.14a.525.525,0,0,0,.363-.153,1.432,1.432,0,0,0,.293-.39,1.9,1.9,0,0,0,.181-.5,2.382,2.382,0,0,0,.056-.488v-14.878a2.1,2.1,0,0,0-.056-.447,2.088,2.088,0,0,0-.167-.474,1.285,1.285,0,0,0-.28-.377.561.561,0,0,0-.39-.153h-.14v-.279h3.909v.279h-.14a.564.564,0,0,0-.391.153,1.1,1.1,0,0,0-.265.377,2.51,2.51,0,0,0-.153.474,2.039,2.039,0,0,0-.056.447v6.308h8.932v-6.308a2.1,2.1,0,0,0-.056-.447,2.089,2.089,0,0,0-.167-.474,1.286,1.286,0,0,0-.28-.377.561.561,0,0,0-.39-.153h-.14v-.279h3.908v.279h-.139a.56.56,0,0,0-.39.153,1.09,1.09,0,0,0-.266.377,2.511,2.511,0,0,0-.153.474,2.039,2.039,0,0,0-.056.447v14.878a1.916,1.916,0,0,0,.07.488,2.532,2.532,0,0,0,.182.488,1.658,1.658,0,0,0,.266.39.459.459,0,0,0,.348.168h.139v.28h-3.908Z" transform="translate(-3.368 -0.017)" fill="#fff"></path>
    <path id="Path_6" data-name="Path 6" d="M199.591-153.087a9.534,9.534,0,0,1,3.908.768,8.948,8.948,0,0,1,2.945,2.065,9.154,9.154,0,0,1,1.87,3.015,9.97,9.97,0,0,1,.655,3.587,9.511,9.511,0,0,1-.767,3.852,9.014,9.014,0,0,1-2.107,3.015,9.879,9.879,0,0,1-3.113,1.968,10.06,10.06,0,0,1-3.782.712,9.23,9.23,0,0,1-3.866-.782,8.941,8.941,0,0,1-2.9-2.065,9.132,9.132,0,0,1-1.828-2.959,9.652,9.652,0,0,1-.642-3.489,10.148,10.148,0,0,1,.642-3.532,9.438,9.438,0,0,1,1.884-3.112,9.456,9.456,0,0,1,3.029-2.205A9.5,9.5,0,0,1,199.591-153.087Zm-.014,18a7.5,7.5,0,0,0,3.286-.851,7.715,7.715,0,0,0,2.363-1.955,8.193,8.193,0,0,0,1.412-2.61,9.1,9.1,0,0,0,.461-2.818,9.166,9.166,0,0,0-.559-3.1,9.573,9.573,0,0,0-1.594-2.834,8.416,8.416,0,0,0-2.475-2.065,6.568,6.568,0,0,0-3.23-.8,6.234,6.234,0,0,0-3.1.767,7.946,7.946,0,0,0-2.336,1.967,8.739,8.739,0,0,0-1.467,2.68,8.965,8.965,0,0,0-.5,2.9,8.639,8.639,0,0,0,.587,3.085,9.894,9.894,0,0,0,1.622,2.805,8.447,8.447,0,0,0,2.447,2.038A6.274,6.274,0,0,0,199.577-135.082Z" transform="translate(-4.212 -0.003)" fill="#fff"></path>
    <path id="Path_7" data-name="Path 7" d="M227.522-134.65h.14a.5.5,0,0,0,.363-.168,1.775,1.775,0,0,0,.293-.39,1.694,1.694,0,0,0,.181-.488,2.382,2.382,0,0,0,.056-.488v-14.683l-7.2,16.8L214.515-150v13.817a2.378,2.378,0,0,0,.055.488,1.7,1.7,0,0,0,.182.488,1.747,1.747,0,0,0,.293.39.531.531,0,0,0,.39.168h.139v.28h-3.042v-.28h.14a.5.5,0,0,0,.363-.168,1.476,1.476,0,0,0,.279-.39,2.01,2.01,0,0,0,.168-.488,2.382,2.382,0,0,0,.056-.488v-14.878a2.1,2.1,0,0,0-.056-.447,2.047,2.047,0,0,0-.168-.474,1.284,1.284,0,0,0-.279-.377.531.531,0,0,0-.363-.153h-.14v-.279h2.847l6.476,15.268,6.476-15.268h3.155v.279h-.139a.562.562,0,0,0-.391.153,1.516,1.516,0,0,0-.293.377,1.713,1.713,0,0,0-.181.474,2.04,2.04,0,0,0-.056.447v14.878a2.318,2.318,0,0,0,.056.488,1.7,1.7,0,0,0,.181.488,1.776,1.776,0,0,0,.293.39.533.533,0,0,0,.391.168h.139v.28h-3.964Z" transform="translate(-5.291 -0.017)" fill="#fff"></path>
    <path id="Path_8" data-name="Path 8" d="M245.9-134.667h.139c.447,0,.67-.2.67-.614a1.493,1.493,0,0,0-.084-.474l-2.512-6.782h-4.886l-2.428,6.671a1.191,1.191,0,0,0-.084.419.805.805,0,0,0,.2.572.572.572,0,0,0,.419.209h.14v.28h-3.1v-.28h.139a.955.955,0,0,0,.712-.432,3.746,3.746,0,0,0,.572-1.019l6.392-17.027,6.252,16.859a4.973,4.973,0,0,0,.545,1.088,1.047,1.047,0,0,0,.907.53h.139v.28H245.9Zm-6.392-8.82h4.3l-2.149-5.834Z" transform="translate(-6.336 0)" fill="#fff"></path>
    <path id="Path_9" data-name="Path 9" d="M131.544-107.348h.14q.67,0,.669-.614a1.493,1.493,0,0,0-.084-.474l-2.512-6.783h-4.885l-2.429,6.672a1.208,1.208,0,0,0-.084.418.807.807,0,0,0,.2.572.571.571,0,0,0,.419.209h.14v.279h-3.1v-.279h.139a.955.955,0,0,0,.712-.432,3.747,3.747,0,0,0,.572-1.019l6.392-17.027,6.253,16.859a4.926,4.926,0,0,0,.544,1.088,1.047,1.047,0,0,0,.907.53h.14v.279h-4.131Zm-6.392-8.82h4.3L127.3-122Z" transform="translate(-0.866 -1.307)" fill="#fff"></path>
    <path id="Path_10" data-name="Path 10" d="M135.507-124.5a1.4,1.4,0,0,0,.084.419l4.913,13.231,4.912-13.37a.936.936,0,0,0,.056-.168.792.792,0,0,0,.028-.168.523.523,0,0,0-.265-.488,1,1,0,0,0-.488-.153v-.279h3.042v.279a1.4,1.4,0,0,0-.767.223,1.452,1.452,0,0,0-.545.754l-6.392,17.5-6.532-17.417a2.039,2.039,0,0,0-.488-.727,1.216,1.216,0,0,0-.8-.334v-.279h3.963v.279a.8.8,0,0,0-.488.181A.612.612,0,0,0,135.507-124.5Z" transform="translate(-1.453 -1.323)" fill="#fff"></path>
    <path id="Path_11" data-name="Path 11" d="M150.65-125.474h3.964v.279h-.14a.529.529,0,0,0-.363.153,1.335,1.335,0,0,0-.279.363,2.224,2.224,0,0,0-.182.474,1.849,1.849,0,0,0-.07.461v14.878a2.325,2.325,0,0,0,.056.488,1.667,1.667,0,0,0,.181.488,2.086,2.086,0,0,0,.279.39.489.489,0,0,0,.377.168h.14v.279H150.65v-.279h.139a.558.558,0,0,0,.391-.153,1.432,1.432,0,0,0,.293-.39,1.9,1.9,0,0,0,.181-.5,2.389,2.389,0,0,0,.056-.488v-14.878a2.1,2.1,0,0,0-.056-.447,1.714,1.714,0,0,0-.181-.474,1.5,1.5,0,0,0-.293-.377.562.562,0,0,0-.391-.153h-.139Z" transform="translate(-2.332 -1.323)" fill="#fff"></path>
    <path id="Path_12" data-name="Path 12" d="M168.275-107.348h.14q.67,0,.67-.614a1.52,1.52,0,0,0-.084-.474l-2.513-6.783H161.6l-2.428,6.672a1.186,1.186,0,0,0-.084.418.8.8,0,0,0,.2.572.569.569,0,0,0,.419.209h.139v.279h-3.1v-.279h.14a.952.952,0,0,0,.711-.432,3.7,3.7,0,0,0,.572-1.019l6.393-17.027,6.252,16.859a4.93,4.93,0,0,0,.545,1.088,1.046,1.046,0,0,0,.906.53h.14v.279h-4.131Zm-6.392-8.82h4.3L164.033-122Z" transform="translate(-2.623 -1.307)" fill="#fff"></path>
    <path id="Path_13" data-name="Path 13" d="M179.238-107.331h.139v.279h-3.964v-.279h.14a.532.532,0,0,0,.39-.168,1.746,1.746,0,0,0,.293-.39,1.725,1.725,0,0,0,.182-.488,2.385,2.385,0,0,0,.055-.488v-15.576h-3.237a1.531,1.531,0,0,0-.782.2,1.9,1.9,0,0,0-.558.488,2.1,2.1,0,0,0-.335.643,2.236,2.236,0,0,0-.111.684h-.279v-3.042H183.7v3.042h-.279a2.265,2.265,0,0,0-.111-.684,2.146,2.146,0,0,0-.335-.643,1.907,1.907,0,0,0-.558-.488,1.534,1.534,0,0,0-.782-.2h-3.294v15.576a2.384,2.384,0,0,0,.055.488,1.7,1.7,0,0,0,.182.488,2.045,2.045,0,0,0,.279.39A.488.488,0,0,0,179.238-107.331Z" transform="translate(-3.313 -1.323)" fill="#fff"></path>
    <path id="Path_14" data-name="Path 14" d="M186.062-125.474h3.964v.279h-.139a.533.533,0,0,0-.364.153,1.335,1.335,0,0,0-.279.363,2.174,2.174,0,0,0-.181.474,1.848,1.848,0,0,0-.07.461v14.878a2.384,2.384,0,0,0,.055.488,1.7,1.7,0,0,0,.182.488,2.044,2.044,0,0,0,.279.39.488.488,0,0,0,.377.168h.139v.279h-3.964v-.279h.14a.557.557,0,0,0,.39-.153,1.413,1.413,0,0,0,.293-.39,1.936,1.936,0,0,0,.182-.5,2.385,2.385,0,0,0,.055-.488v-14.878a2.094,2.094,0,0,0-.055-.447,1.746,1.746,0,0,0-.182-.474,1.477,1.477,0,0,0-.293-.377.561.561,0,0,0-.39-.153h-.14Z" transform="translate(-4.025 -1.323)" fill="#fff"></path>
    <path id="Path_15" data-name="Path 15" d="M202.464-125.768a9.535,9.535,0,0,1,3.908.768,8.949,8.949,0,0,1,2.945,2.065,9.144,9.144,0,0,1,1.87,3.015,9.97,9.97,0,0,1,.655,3.587,9.511,9.511,0,0,1-.767,3.852,9.023,9.023,0,0,1-2.107,3.015,9.879,9.879,0,0,1-3.113,1.968,10.06,10.06,0,0,1-3.782.712,9.23,9.23,0,0,1-3.866-.782,8.929,8.929,0,0,1-2.9-2.066,9.117,9.117,0,0,1-1.828-2.958,9.656,9.656,0,0,1-.642-3.489,10.148,10.148,0,0,1,.642-3.532,9.428,9.428,0,0,1,1.884-3.112,9.441,9.441,0,0,1,3.029-2.205A9.5,9.5,0,0,1,202.464-125.768Zm-.014,18a7.478,7.478,0,0,0,3.286-.851,7.7,7.7,0,0,0,2.363-1.954,8.193,8.193,0,0,0,1.412-2.61,9.1,9.1,0,0,0,.461-2.818,9.162,9.162,0,0,0-.559-3.1,9.561,9.561,0,0,0-1.594-2.834A8.415,8.415,0,0,0,205.345-124a6.569,6.569,0,0,0-3.23-.8,6.244,6.244,0,0,0-3.1.767,7.963,7.963,0,0,0-2.336,1.968,8.745,8.745,0,0,0-1.467,2.679,8.97,8.97,0,0,0-.5,2.9,8.639,8.639,0,0,0,.587,3.085,9.894,9.894,0,0,0,1.622,2.805,8.447,8.447,0,0,0,2.447,2.038A6.273,6.273,0,0,0,202.45-107.764Z" transform="translate(-4.349 -1.309)" fill="#fff"></path>
    <path id="Path_16" data-name="Path 16" d="M218.3-107.331h.139v.279h-3.1v-.279h.139a.55.55,0,0,0,.377-.168,1.348,1.348,0,0,0,.293-.39,2.53,2.53,0,0,0,.181-.488,1.926,1.926,0,0,0,.07-.488v-14.878a2.793,2.793,0,0,0-.042-.447,1.689,1.689,0,0,0-.154-.474,1.094,1.094,0,0,0-.307-.377.747.747,0,0,0-.474-.153h-.14v-.279h2.819l10.132,15.966v-14.236a1.73,1.73,0,0,0-.07-.447,2.115,2.115,0,0,0-.2-.474,1.5,1.5,0,0,0-.293-.377.562.562,0,0,0-.391-.153h-.139v-.279h3.126v.279h-.14a.561.561,0,0,0-.39.153,1.5,1.5,0,0,0-.293.377,1.713,1.713,0,0,0-.181.474,2.04,2.04,0,0,0-.056.447v16.692h-1.73l-10.1-16.021v14.207a2.384,2.384,0,0,0,.055.488,1.7,1.7,0,0,0,.182.488,1.747,1.747,0,0,0,.293.39A.531.531,0,0,0,218.3-107.331Z" transform="translate(-5.423 -1.323)" fill="#fff"></path>
  </g>
</svg>
