<?xml version="1.0" encoding="UTF-8"?>
<svg xmlns="http://www.w3.org/2000/svg" width="362.195" height="37.689" viewBox="0 0 362.195 37.689">
  <g id="Group_182" data-name="Group 182" transform="translate(0)">
    <g id="Group_181" data-name="Group 181">
      <path id="Path_102" data-name="Path 102" d="M468.379,1346.829q-3.148,0-6.548-.3t-6.548-.8v-2.95q3,.3,5.723.475t5.374.175a26.216,26.216,0,0,0,4.249-.3,9.45,9.45,0,0,0,2.949-.925,4.054,4.054,0,0,0,1.7-1.649,5.163,5.163,0,0,0,.551-2.474,4.122,4.122,0,0,0-2.2-3.949,6.837,6.837,0,0,0-1.7-.85q-1-.348-2.274-.724t-2.875-.825q-1.8-.5-3.323-1.074a22.63,22.63,0,0,1-2.774-1.249,11.382,11.382,0,0,1-2.2-1.525,8.5,8.5,0,0,1-2.2-3.1,11.292,11.292,0,0,1-.749-4.348,10.837,10.837,0,0,1,1.3-5.623,9.215,9.215,0,0,1,3.524-3.4,15.839,15.839,0,0,1,5.049-1.7,35.735,35.735,0,0,1,5.923-.474q1.249,0,2.65.074t2.849.2q1.45.125,2.9.324t2.8.45v2.95q-1.6-.2-3.2-.325t-3.124-.2q-1.526-.076-2.875-.075a25.905,25.905,0,0,0-3.623.225,7.88,7.88,0,0,0-2.674.825,4.309,4.309,0,0,0-1.674,1.549,4.567,4.567,0,0,0-.575,2.4,4.623,4.623,0,0,0,.526,2.349,4.354,4.354,0,0,0,1.474,1.5,13.228,13.228,0,0,0,1.625.775,18.521,18.521,0,0,0,2.125.7q1.2.325,2.6.724,1.95.55,3.574,1.1a28.355,28.355,0,0,1,2.949,1.175,10.543,10.543,0,0,1,2.324,1.474,8.531,8.531,0,0,1,2.3,3.124,11.106,11.106,0,0,1,.749,4.324,10.83,10.83,0,0,1-1.425,5.8,10.385,10.385,0,0,1-3.849,3.649,18.069,18.069,0,0,1-5.373,1.924A31.292,31.292,0,0,1,468.379,1346.829Z" transform="translate(-455.283 -1309.24)" fill="#a18038"></path>
      <path id="Path_103" data-name="Path 103" d="M517.739,1346.55v-36.89h17.545a20.988,20.988,0,0,1,5.3.65,13.282,13.282,0,0,1,4.423,2.024,9.329,9.329,0,0,1,3,3.6,12.384,12.384,0,0,1,1.075,5.423,12.548,12.548,0,0,1-1.675,6.648,10.8,10.8,0,0,1-4.748,4.2,16.892,16.892,0,0,1-7.273,1.45h-7.6v12.9Zm10.048-16.1h5.1a6.494,6.494,0,0,0,3.474-.826,4.833,4.833,0,0,0,1.949-2.749,17.945,17.945,0,0,0,.625-5.324,20.905,20.905,0,0,0-.349-4.173,6.492,6.492,0,0,0-1.1-2.65,4.17,4.17,0,0,0-1.924-1.4,8.176,8.176,0,0,0-2.774-.425h-5Z" transform="translate(-465.8 -1309.311)" fill="#a18038"></path>
      <path id="Path_104" data-name="Path 104" d="M582.077,1346.55v-36.89h10.047v36.89Z" transform="translate(-476.633 -1309.311)" fill="#a18038"></path>
      <path id="Path_105" data-name="Path 105" d="M623.429,1346.55v-36.89h15.846a28.3,28.3,0,0,1,5.974.6,15.34,15.34,0,0,1,4.873,1.9,9.062,9.062,0,0,1,3.274,3.5,11.233,11.233,0,0,1,1.175,5.348,10.085,10.085,0,0,1-1.15,4.874,10.743,10.743,0,0,1-3.174,3.6,14.473,14.473,0,0,1-4.8,2.224,23.034,23.034,0,0,1-6.023.75h-6.3v14.1Zm9.7-17.495h5.348a7.321,7.321,0,0,0,3.524-.75,4.478,4.478,0,0,0,2.024-2.524,14.274,14.274,0,0,0,.649-4.774,14.807,14.807,0,0,0-.649-4.948,4.236,4.236,0,0,0-2.049-2.45,8.064,8.064,0,0,0-3.6-.7h-5.248Zm11.446,17.495-7.847-14.946,8.547-3.949,10,18.9Z" transform="translate(-483.596 -1309.311)" fill="#a18038"></path>
      <path id="Path_106" data-name="Path 106" d="M688.518,1346.55v-36.89h10.047v36.89Z" transform="translate(-494.556 -1309.311)" fill="#a18038"></path>
      <path id="Path_107" data-name="Path 107" d="M726.859,1312.909v-3.249H758.55v3.249Zm10.848,33.641v-36.89h10v36.89Z" transform="translate(-501.012 -1309.311)" fill="#a18038"></path>
      <path id="Path_108" data-name="Path 108" d="M807.163,1347a23.486,23.486,0,0,1-8.922-1.475,10.376,10.376,0,0,1-5.348-4.748,17.956,17.956,0,0,1-1.775-8.573V1309.66h10.247v22.893a21.788,21.788,0,0,0,.425,4.6,7.847,7.847,0,0,0,1.4,3.2,5.728,5.728,0,0,0,2.6,1.85,11.726,11.726,0,0,0,4.024.6,13.583,13.583,0,0,0,3.524-.4,7.539,7.539,0,0,0,2.524-1.174,5.448,5.448,0,0,0,1.649-1.975,10.08,10.08,0,0,0,.875-2.874,23.83,23.83,0,0,0,.275-3.824V1309.66h3.9V1332.2a23.464,23.464,0,0,1-.875,6.873,10.256,10.256,0,0,1-2.749,4.574,11.216,11.216,0,0,1-4.773,2.549A26.613,26.613,0,0,1,807.163,1347Z" transform="translate(-511.832 -1309.311)" fill="#a18038"></path>
      <path id="Path_109" data-name="Path 109" d="M868.148,1346.829q-3.15,0-6.548-.3t-6.548-.8v-2.95q3,.3,5.723.475t5.374.175a26.231,26.231,0,0,0,4.249-.3,9.465,9.465,0,0,0,2.949-.925,4.067,4.067,0,0,0,1.7-1.649,5.174,5.174,0,0,0,.55-2.474,4.118,4.118,0,0,0-2.2-3.949,6.838,6.838,0,0,0-1.7-.85q-1-.348-2.275-.724t-2.875-.825q-1.8-.5-3.324-1.074a22.674,22.674,0,0,1-2.773-1.249,11.383,11.383,0,0,1-2.2-1.525,8.5,8.5,0,0,1-2.2-3.1,11.292,11.292,0,0,1-.749-4.348,10.846,10.846,0,0,1,1.3-5.623,9.223,9.223,0,0,1,3.524-3.4,15.839,15.839,0,0,1,5.049-1.7,35.735,35.735,0,0,1,5.923-.474q1.249,0,2.65.074t2.849.2q1.448.125,2.9.324t2.8.45v2.95q-1.6-.2-3.2-.325t-3.124-.2q-1.524-.076-2.873-.075a25.909,25.909,0,0,0-3.624.225,7.881,7.881,0,0,0-2.674.825,4.312,4.312,0,0,0-1.675,1.549,4.575,4.575,0,0,0-.575,2.4,4.632,4.632,0,0,0,.525,2.349,4.363,4.363,0,0,0,1.474,1.5,13.228,13.228,0,0,0,1.625.775,18.562,18.562,0,0,0,2.124.7q1.2.325,2.6.724,1.95.55,3.574,1.1a28.423,28.423,0,0,1,2.949,1.175,10.542,10.542,0,0,1,2.324,1.474,8.523,8.523,0,0,1,2.3,3.124,11.107,11.107,0,0,1,.749,4.324,10.83,10.83,0,0,1-1.425,5.8,10.384,10.384,0,0,1-3.849,3.649,18.069,18.069,0,0,1-5.373,1.924A31.3,31.3,0,0,1,868.148,1346.829Z" transform="translate(-522.598 -1309.24)" fill="#a18038"></path>
    </g>
  </g>
</svg>
