<?xml version="1.0" encoding="UTF-8"?>
<svg xmlns="http://www.w3.org/2000/svg" width="145.296" height="82.404" viewBox="0 0 145.296 82.404">
  <g id="Group_175" data-name="Group 175" transform="translate(-1734.303 -997.306)">
    <g id="Group_174" data-name="Group 174" transform="translate(1734.303 997.306)">
      <path id="Path_83" data-name="Path 83" d="M1813.973,1022.7a39.617,39.617,0,0,0-8.117-13.089,38.769,38.769,0,0,0-12.783-8.966,41.963,41.963,0,0,0-47.806,9.872,40.858,40.858,0,0,0-8.181,13.514,44.125,44.125,0,0,0-2.784,15.326,41.993,41.993,0,0,0,2.784,15.149,39.639,39.639,0,0,0,7.94,12.848,38.973,38.973,0,0,0,12.6,8.966,40.129,40.129,0,0,0,16.786,3.393,43.622,43.622,0,0,0,16.417-3.1,42.643,42.643,0,0,0,13.513-8.542,39.162,39.162,0,0,0,9.151-13.088,41.409,41.409,0,0,0,3.329-16.722A43.232,43.232,0,0,0,1813.973,1022.7Zm-7.273,29.265a35.569,35.569,0,0,1-6.127,11.324,33.487,33.487,0,0,1-10.262,8.485,32.461,32.461,0,0,1-14.265,3.7,27.263,27.263,0,0,1-13.414-3.393,36.664,36.664,0,0,1-10.623-8.845,42.925,42.925,0,0,1-7.04-12.182,37.549,37.549,0,0,1-2.55-13.386,38.961,38.961,0,0,1,2.188-12.606,37.8,37.8,0,0,1,6.368-11.63,34.375,34.375,0,0,1,10.141-8.542,27.078,27.078,0,0,1,13.471-3.335,28.5,28.5,0,0,1,14.023,3.456,36.418,36.418,0,0,1,10.744,8.967,41.469,41.469,0,0,1,6.92,12.294,38.438,38.438,0,0,1,.425,25.7Z" transform="translate(-1734.303 -997.306)" fill="#fff"></path>
      <path id="Path_84" data-name="Path 84" d="M1895.175,1078.112a4.545,4.545,0,0,1-3.938-2.3,21.381,21.381,0,0,1-2.365-4.724l-27.14-73.189-27.749,73.92a16.433,16.433,0,0,1-2.486,4.419,4.139,4.139,0,0,1-3.095,1.876h-.6v1.211h13.45v-1.211h-.6a2.489,2.489,0,0,1-1.82-.906,3.494,3.494,0,0,1-.849-2.486,5.184,5.184,0,0,1,.36-1.813l8.1-22.24,3.662-10.843,9.335-25.328,7.564,20.532.12.333,1.643,4.462h-.028l6.353,17.606.107.284,5.807,15.674a6.569,6.569,0,0,1,.361,2.061q0,2.666-2.9,2.663h-.609v1.211h17.933v-1.211Z" transform="translate(-1750.481 -997.408)" fill="#fff"></path>
    </g>
  </g>
</svg>
