<svg xmlns="http://www.w3.org/2000/svg" viewBox="0 0 1920 610.74"><defs><style>.cls-1{fill:#fff;}</style></defs><title>OklahomaAviation_MainLogo_Web_White</title><g id="Layer_2" data-name="Layer 2"><g id="Layer_1-2" data-name="Layer 1"><path class="cls-1" d="M130.39.75q29.49,0,52.92,10.4a121,121,0,0,1,39.87,28,123.82,123.82,0,0,1,25.33,40.82,135.14,135.14,0,0,1,8.88,48.56q0,28.35-10.39,52.16a122.48,122.48,0,0,1-28.54,40.82,134,134,0,0,1-42.14,26.65,136.28,136.28,0,0,1-51.22,9.64q-29.1,0-52.34-10.59a120.82,120.82,0,0,1-39.31-28A123.57,123.57,0,0,1,8.69,179.15,130.75,130.75,0,0,1,0,131.91,137.43,137.43,0,0,1,8.69,84.09a126.82,126.82,0,0,1,66.52-72Q99.41.77,130.39.75Zm-.18,243.79Q155.57,243.4,174.7,233a104.43,104.43,0,0,0,32-26.46,110.71,110.71,0,0,0,19.12-35.34A123.4,123.4,0,0,0,232.07,133a123.91,123.91,0,0,0-7.58-41.95,129.28,129.28,0,0,0-21.58-38.37,114,114,0,0,0-33.51-28Q149.9,14,125.66,14q-23.47,0-42,10.4A107.53,107.53,0,0,0,52,51,118.27,118.27,0,0,0,32.14,87.31a121.4,121.4,0,0,0-6.82,39.3,117.18,117.18,0,0,0,8,41.77,134.07,134.07,0,0,0,22,38A114.21,114.21,0,0,0,88.36,234,85,85,0,0,0,130.21,244.54Z"/><path class="cls-1" d="M342.8,250.21h1.89V254H290.64v-3.78h1.89a7.29,7.29,0,0,0,5.3-2.27,24,24,0,0,0,4-5.29,23.13,23.13,0,0,0,2.46-6.62,32.48,32.48,0,0,0,.76-6.61V28a28.59,28.59,0,0,0-.76-6,23.25,23.25,0,0,0-2.46-6.42,20.41,20.41,0,0,0-4-5.11,7.21,7.21,0,0,0-4.92-2.08H291V4.54h54.05V8.31h-1.89a7.6,7.6,0,0,0-5.29,2.08,20.44,20.44,0,0,0-4,5.11,28.26,28.26,0,0,0-2.64,6.42,22.58,22.58,0,0,0-.95,6v87.68l96-95.24a9,9,0,0,0,2.27-6.05q0-6-4.54-6h-1.89V4.54h46.11V8.31h-1.89c-3.53,0-7.18,1.27-11,3.78a75.14,75.14,0,0,0-11.33,9.45l-79.38,79,83.53,126.61a44.36,44.36,0,0,0,3.4,4.54,81.14,81.14,0,0,0,7.38,7.93,51.66,51.66,0,0,0,9.82,7.37A21.74,21.74,0,0,0,480,250.21V254h-9.07a115,115,0,0,1-19.09-1.33,44.19,44.19,0,0,1-13.42-4.34,39.73,39.73,0,0,1-10-7.56,83.08,83.08,0,0,1-8.88-11.34L346.21,118.68l-15.88,16.25v94.49a23.56,23.56,0,0,0,.95,6.42,40.5,40.5,0,0,0,2.45,6.62,19.33,19.33,0,0,0,3.78,5.48A7.25,7.25,0,0,0,342.8,250.21Z"/><path class="cls-1" d="M504.57,250.21h1.89a7.63,7.63,0,0,0,5.29-2.08,20.67,20.67,0,0,0,4-5.11,28.72,28.72,0,0,0,2.64-6.42,24.06,24.06,0,0,0,.95-6.42V28a23,23,0,0,0-.95-6,28.72,28.72,0,0,0-2.64-6.42,20.67,20.67,0,0,0-4-5.11,7.63,7.63,0,0,0-5.29-2.08h-1.89V4.54H559V8.31H557.1a7.6,7.6,0,0,0-5.29,2.08A17.3,17.3,0,0,0,548,15.5a35.26,35.26,0,0,0-2.46,6.42,22.94,22.94,0,0,0-.94,6V240H627.4a22.53,22.53,0,0,0,12.47-3.4,31.76,31.76,0,0,0,8.89-8.51,36.77,36.77,0,0,0,5.29-11,39,39,0,0,0,1.7-10.77h3.78V254h-155Z"/><path class="cls-1" d="M824.69,250.21h1.89q9.07,0,9.07-8.32a20.18,20.18,0,0,0-1.13-6.42l-34-91.85H734.36L701.48,234a16.13,16.13,0,0,0-1.13,5.67,10.92,10.92,0,0,0,2.64,7.75,7.72,7.72,0,0,0,5.67,2.84h1.89V254H668.6v-3.78h1.89q4.9,0,9.63-5.86a50.54,50.54,0,0,0,7.75-13.8L774.42,0l84.67,228.29A66.32,66.32,0,0,0,866.46,243q4.71,7.2,12.28,7.19h1.89V254H824.69ZM738.14,130.77h58.21l-29.11-79Z"/><path class="cls-1" d="M1054.11,250.21H1056a7.21,7.21,0,0,0,4.92-2.08,19.42,19.42,0,0,0,4-5.29,25.79,25.79,0,0,0,2.46-6.81,32.48,32.48,0,0,0,.76-6.61V126.61H947.15V229.42a32.43,32.43,0,0,0,.75,6.61,27.48,27.48,0,0,0,2.27,6.62,23.09,23.09,0,0,0,3.59,5.29,6.68,6.68,0,0,0,5.11,2.27h1.89V254H907.84v-3.78h1.89a7.21,7.21,0,0,0,4.92-2.08,19.42,19.42,0,0,0,4-5.29,25.79,25.79,0,0,0,2.46-6.81,32.48,32.48,0,0,0,.76-6.61V28a28.59,28.59,0,0,0-.76-6,27.8,27.8,0,0,0-2.27-6.42A17.48,17.48,0,0,0,915,10.39a7.6,7.6,0,0,0-5.29-2.08h-1.89V4.54h52.92V8.31h-1.89a7.64,7.64,0,0,0-5.3,2.08A15,15,0,0,0,950,15.5a35.2,35.2,0,0,0-2.08,6.42,28.52,28.52,0,0,0-.75,6v85.42H1068.1V28a28.59,28.59,0,0,0-.76-6,27.8,27.8,0,0,0-2.27-6.42,17.48,17.48,0,0,0-3.78-5.11A7.62,7.62,0,0,0,1056,8.31h-1.89V4.54H1107V8.31h-1.9a7.63,7.63,0,0,0-5.29,2.08,15,15,0,0,0-3.59,5.11,35.2,35.2,0,0,0-2.08,6.42,28.52,28.52,0,0,0-.75,6V229.42a26,26,0,0,0,.94,6.61,34.1,34.1,0,0,0,2.46,6.62,22.47,22.47,0,0,0,3.59,5.29,6.27,6.27,0,0,0,4.72,2.27h1.9V254h-52.92Z"/><path class="cls-1" d="M1265.76.75q29.49,0,52.92,10.4a121,121,0,0,1,39.87,28,123.82,123.82,0,0,1,25.33,40.82,135.14,135.14,0,0,1,8.88,48.56q0,28.35-10.39,52.16a122.48,122.48,0,0,1-28.54,40.82,134.19,134.19,0,0,1-42.14,26.65,136.28,136.28,0,0,1-51.22,9.64q-29.1,0-52.34-10.59a120.82,120.82,0,0,1-39.31-28,123.57,123.57,0,0,1-24.76-40.06,130.75,130.75,0,0,1-8.69-47.24,137.43,137.43,0,0,1,8.69-47.82,126.82,126.82,0,0,1,66.52-72Q1234.78.77,1265.76.75Zm-.18,243.79q25.37-1.14,44.49-11.53a104.43,104.43,0,0,0,32-26.46,110.71,110.71,0,0,0,19.12-35.34,123.4,123.4,0,0,0,6.25-38.17,123.91,123.91,0,0,0-7.58-41.95,129.28,129.28,0,0,0-21.58-38.37,114,114,0,0,0-33.51-28Q1285.27,14,1261,14q-23.46,0-42,10.4A107.53,107.53,0,0,0,1187.39,51a118.06,118.06,0,0,0-19.88,36.29,121.4,121.4,0,0,0-6.82,39.3,117.18,117.18,0,0,0,8,41.77,134,134,0,0,0,22,38A114.29,114.29,0,0,0,1223.74,234,84.89,84.89,0,0,0,1265.58,244.54Z"/><path class="cls-1" d="M1629.35,250.21h1.89a6.89,6.89,0,0,0,4.92-2.27,24.32,24.32,0,0,0,4-5.29,23.11,23.11,0,0,0,2.45-6.62,31.79,31.79,0,0,0,.76-6.61V30.61l-97.51,227.53-92.6-215.81V229.42A31.74,31.74,0,0,0,1454,236a23.13,23.13,0,0,0,2.46,6.62,24,24,0,0,0,4,5.29,7.25,7.25,0,0,0,5.29,2.27h1.89V254h-41.2v-3.78h1.89a6.87,6.87,0,0,0,4.91-2.27,19.94,19.94,0,0,0,3.78-5.29,27.48,27.48,0,0,0,2.27-6.62,31.79,31.79,0,0,0,.76-6.61V28a28,28,0,0,0-.76-6A27.8,27.8,0,0,0,1437,15.5a17.3,17.3,0,0,0-3.78-5.11,7.17,7.17,0,0,0-4.91-2.08h-1.89V4.54h38.55l87.69,206.74L1640.31,4.54H1683V8.31h-1.89a7.6,7.6,0,0,0-5.29,2.08,20.67,20.67,0,0,0-4,5.11,23.23,23.23,0,0,0-2.45,6.42,28,28,0,0,0-.76,6V229.42a31.79,31.79,0,0,0,.76,6.61,23.11,23.11,0,0,0,2.45,6.62,24.32,24.32,0,0,0,4,5.29,7.25,7.25,0,0,0,5.29,2.27H1683V254h-53.67Z"/><path class="cls-1" d="M1864.06,250.21H1866q9.08,0,9.07-8.32a20.46,20.46,0,0,0-1.13-6.42l-34-91.85h-66.14L1740.85,234a16.16,16.16,0,0,0-1.14,5.67,10.88,10.88,0,0,0,2.65,7.75,7.72,7.72,0,0,0,5.67,2.84h1.89V254h-42v-3.78h1.89q4.91,0,9.64-5.86a50.78,50.78,0,0,0,7.74-13.8L1813.8,0l84.66,228.29a66.32,66.32,0,0,0,7.37,14.73q4.71,7.2,12.28,7.19H1920V254h-55.94Zm-86.55-119.44h58.21l-29.11-79Z"/><path class="cls-1" d="M389.67,602.43h1.89q9.07,0,9.07-8.32a20.46,20.46,0,0,0-1.13-6.42l-34-91.85H299.34l-32.88,90.33a16.16,16.16,0,0,0-1.14,5.67,10.88,10.88,0,0,0,2.65,7.75,7.72,7.72,0,0,0,5.67,2.84h1.89v3.77h-42v-3.77h1.89q4.92,0,9.64-5.86a50.54,50.54,0,0,0,7.75-13.8L339.4,352.22,424.06,580.5a66.61,66.61,0,0,0,7.37,14.74q4.72,7.18,12.29,7.19h1.89v3.77H389.67ZM303.12,483h58.2l-29.1-79Z"/><path class="cls-1" d="M435.4,370a18.59,18.59,0,0,0,1.14,5.67L503.06,554.8l66.52-181a12.27,12.27,0,0,0,.76-2.27,10.89,10.89,0,0,0,.37-2.26,7.09,7.09,0,0,0-3.59-6.62,13.45,13.45,0,0,0-6.61-2.08v-3.78H601.7v3.78a18.88,18.88,0,0,0-10.39,3q-4.72,3-7.37,10.2l-86.55,237L409,374.9a27.81,27.81,0,0,0-6.62-9.83,16.51,16.51,0,0,0-10.77-4.54v-3.78h53.67v3.78a10.79,10.79,0,0,0-6.61,2.46A8.27,8.27,0,0,0,435.4,370Z"/><path class="cls-1" d="M628.54,356.75h53.67v3.78h-1.89a7.18,7.18,0,0,0-4.92,2.08,18.27,18.27,0,0,0-3.78,4.92,29.07,29.07,0,0,0-2.45,6.42,25.14,25.14,0,0,0-.95,6.24V581.64a31.79,31.79,0,0,0,.76,6.61,23.11,23.11,0,0,0,2.45,6.62,28.72,28.72,0,0,0,3.78,5.29,6.68,6.68,0,0,0,5.11,2.27h1.89v3.77H628.54v-3.77h1.89a7.62,7.62,0,0,0,5.29-2.08,19.65,19.65,0,0,0,4-5.29,26.13,26.13,0,0,0,2.45-6.81,31.79,31.79,0,0,0,.76-6.61V380.19a28,28,0,0,0-.76-6.05,23.55,23.55,0,0,0-2.45-6.42,20.67,20.67,0,0,0-4-5.11,7.62,7.62,0,0,0-5.29-2.08h-1.89Z"/><path class="cls-1" d="M863.25,602.43h1.89q9.06,0,9.07-8.32a20.21,20.21,0,0,0-1.14-6.42l-34-91.85H772.91L740,586.17a16.36,16.36,0,0,0-1.13,5.67,10.92,10.92,0,0,0,2.64,7.75,7.72,7.72,0,0,0,5.67,2.84h1.89v3.77h-42v-3.77H709q4.9,0,9.64-5.86a50.54,50.54,0,0,0,7.75-13.8L813,352.22,897.64,580.5A66.61,66.61,0,0,0,905,595.24q4.72,7.18,12.28,7.19h1.89v3.77H863.25ZM776.69,483H834.9l-29.1-79Z"/><path class="cls-1" d="M1002.34,602.43h1.89v3.77H950.56v-3.77h1.89a7.26,7.26,0,0,0,5.29-2.27,24.32,24.32,0,0,0,4-5.29,23.11,23.11,0,0,0,2.45-6.62,31.79,31.79,0,0,0,.76-6.61V370.74H921.08a20.68,20.68,0,0,0-10.59,2.64,25.56,25.56,0,0,0-7.55,6.62,28.21,28.21,0,0,0-4.54,8.69,30.28,30.28,0,0,0-1.51,9.26h-3.78v-41.2h169.7V398H1059a30.59,30.59,0,0,0-1.51-9.26A28.65,28.65,0,0,0,1053,380a25.6,25.6,0,0,0-7.56-6.62,20.64,20.64,0,0,0-10.58-2.64h-44.6v210.9a31.79,31.79,0,0,0,.76,6.61,23.11,23.11,0,0,0,2.45,6.62,28.72,28.72,0,0,0,3.78,5.29A6.68,6.68,0,0,0,1002.34,602.43Z"/><path class="cls-1" d="M1085.11,356.75h53.67v3.78h-1.89a7.18,7.18,0,0,0-4.92,2.08,18.27,18.27,0,0,0-3.78,4.92,29.07,29.07,0,0,0-2.45,6.42,24.67,24.67,0,0,0-1,6.24V581.64a31.79,31.79,0,0,0,.76,6.61,23.11,23.11,0,0,0,2.45,6.62,28.72,28.72,0,0,0,3.78,5.29,6.68,6.68,0,0,0,5.11,2.27h1.89v3.77h-53.67v-3.77H1087a7.63,7.63,0,0,0,5.29-2.08,19.42,19.42,0,0,0,4-5.29,25.45,25.45,0,0,0,2.46-6.81,31.79,31.79,0,0,0,.76-6.61V380.19a28,28,0,0,0-.76-6.05,22.94,22.94,0,0,0-2.46-6.42,20.41,20.41,0,0,0-4-5.11,7.63,7.63,0,0,0-5.29-2.08h-1.89Z"/><path class="cls-1" d="M1302.81,353q29.48,0,52.91,10.4a121.19,121.19,0,0,1,39.88,28,123.79,123.79,0,0,1,25.32,40.82,134.92,134.92,0,0,1,8.88,48.56q0,28.35-10.39,52.16a122.33,122.33,0,0,1-28.54,40.82,134,134,0,0,1-42.14,26.65,136.26,136.26,0,0,1-51.21,9.64q-29.12,0-52.35-10.59a120.82,120.82,0,0,1-39.31-28,123.57,123.57,0,0,1-24.76-40.06,131,131,0,0,1-8.69-47.24,137.66,137.66,0,0,1,8.69-47.82,126.79,126.79,0,0,1,66.53-72Q1271.81,353,1302.81,353Zm-.19,243.79q25.37-1.14,44.49-11.53a104.43,104.43,0,0,0,32-26.46,110.71,110.71,0,0,0,19.12-35.34,119.78,119.78,0,0,0-1.33-80.12,129.28,129.28,0,0,0-21.58-38.37,114,114,0,0,0-33.51-28q-19.5-10.77-43.73-10.77-23.47,0-42,10.4a107.44,107.44,0,0,0-31.62,26.64,118.27,118.27,0,0,0-19.88,36.29,121.38,121.38,0,0,0-6.81,39.3,117.2,117.2,0,0,0,7.94,41.77,134.07,134.07,0,0,0,22,38,114.12,114.12,0,0,0,33.13,27.59A84.89,84.89,0,0,0,1302.62,596.76Z"/><path class="cls-1" d="M1502.74,602.43h1.89v3.77h-42v-3.77h1.89a7.51,7.51,0,0,0,5.1-2.27,18.15,18.15,0,0,0,4-5.29,34.75,34.75,0,0,0,2.45-6.62,26.07,26.07,0,0,0,1-6.61V380.19a37.14,37.14,0,0,0-.57-6.05,22.47,22.47,0,0,0-2.08-6.42,14.93,14.93,0,0,0-4.15-5.11,10.14,10.14,0,0,0-6.43-2.08h-1.89v-3.78h38.17L1637.29,573V380.19a22.94,22.94,0,0,0-.94-6.05,28.29,28.29,0,0,0-2.65-6.42,20.21,20.21,0,0,0-4-5.11,7.6,7.6,0,0,0-5.29-2.08h-1.89v-3.78h42.33v3.78H1663a7.63,7.63,0,0,0-5.29,2.08,20.67,20.67,0,0,0-4,5.11,23.23,23.23,0,0,0-2.45,6.42,28,28,0,0,0-.76,6.05v226h-23.43L1490.27,389.26V581.64a32.43,32.43,0,0,0,.75,6.61,23.43,23.43,0,0,0,2.46,6.62,24,24,0,0,0,4,5.29A7.25,7.25,0,0,0,1502.74,602.43Z"/></g></g></svg>