<?xml version="1.0" encoding="UTF-8"?>
<svg xmlns="http://www.w3.org/2000/svg" viewBox="0 0 116.08 116.08">
  <title>Asset 8</title>
  <g id="Layer_2" data-name="Layer 2">
    <g id="Layer_1-2" data-name="Layer 1">
      <circle cx="58.04" cy="58.04" r="58.04" fill="#a18038"></circle>
      <path d="M58,76.3l-.59-.54a26.82,26.82,0,0,1,0-38l.59-.55.6.55a26.82,26.82,0,0,1,0,38Zm0-36.68a26.19,26.19,0,0,0-6.76,17.12A26.21,26.21,0,0,0,58,73.86a26.21,26.21,0,0,0,6.76-17.12A26.19,26.19,0,0,0,58,39.62Z" fill="#fff"></path>
      <path d="M68.15,78.91a27,27,0,0,1-10.5-2l.73-1.59-.37.79.37-.79a26.19,26.19,0,0,0,19.2,0A26.16,26.16,0,0,0,90.83,62.54a26.65,26.65,0,0,0-14.08-1l-.36-1.71a27.79,27.79,0,0,1,16,1.48l.73.34-.28.76A27.46,27.46,0,0,1,78.24,76.92,26.24,26.24,0,0,1,68.15,78.91Z" fill="#fff"></path>
      <path d="M58.16,76.93l-.3-1.73A26.1,26.1,0,0,0,73.68,64.32a26.12,26.12,0,0,0,3.63-18A26.9,26.9,0,0,0,66,52.56l-1.2-1.27a27.61,27.61,0,0,1,13-6.93l.8-.14.2.78A26.82,26.82,0,0,1,58.16,76.93Z" fill="#fff"></path>
      <path d="M57.85,76.92a26.8,26.8,0,0,1-20.1-32.29l.21-.78.8.16a27.61,27.61,0,0,1,12.54,6.8l-1.2,1.27a26.88,26.88,0,0,0-10.84-6.15A26.18,26.18,0,0,0,42.57,64,26.17,26.17,0,0,0,58.18,75.21Z" fill="#fff"></path>
      <path d="M47.93,78.91a26.24,26.24,0,0,1-10.09-2A27.46,27.46,0,0,1,23.27,62.36L23,61.6l.73-.34a27.72,27.72,0,0,1,16.37-1.4l-.38,1.71a26.82,26.82,0,0,0-14.46,1A26.23,26.23,0,0,0,38.5,75.31a26.05,26.05,0,0,0,19.2,0l.73,1.59A27,27,0,0,1,47.93,78.91Z" fill="#fff"></path>
    </g>
  </g>
</svg>
