<?xml version="1.0" encoding="UTF-8"?>
<svg xmlns="http://www.w3.org/2000/svg" viewBox="0 0 116.08 116.08">
  <title>Asset 6</title>
  <g id="Layer_2" data-name="Layer 2">
    <g id="Layer_1-2" data-name="Layer 1">
      <circle cx="58.04" cy="58.04" r="58.04" fill="#a18038"></circle>
      <polygon points="61.4 83 32.23 83 32.23 35.99 83.96 35.99 83.96 59.75 82.22 59.75 82.22 37.74 33.98 37.74 33.98 81.25 61.4 81.25 61.4 83" fill="#fff"></polygon>
      <rect x="42.27" y="31.55" width="1.75" height="11.02" fill="#fff"></rect>
      <rect x="72.18" y="31.75" width="1.75" height="11.02" fill="#fff"></rect>
      <path d="M73.84,89.1A16.62,16.62,0,1,1,90.45,72.48,16.64,16.64,0,0,1,73.84,89.1Zm0-31.49A14.88,14.88,0,1,0,88.71,72.48,14.89,14.89,0,0,0,73.84,57.61Z" fill="#fff"></path>
      <polygon points="83.09 73.75 72.97 73.75 72.97 64.61 74.71 64.61 74.71 72.01 83.09 72.01 83.09 73.75" fill="#fff"></polygon>
      <rect x="33.1" y="49.57" width="49.79" height="1.75" fill="#fff"></rect>
    </g>
  </g>
</svg>
