<?xml version="1.0" encoding="UTF-8"?>
<svg xmlns="http://www.w3.org/2000/svg" viewBox="0 0 116.08 116.08">
  <title>Asset 2</title>
  <g id="Layer_2" data-name="Layer 2">
    <g id="Layer_1-2" data-name="Layer 1">
      <circle cx="58.04" cy="58.04" r="58.04" fill="#a18038"></circle>
      <path d="M42.65,83.07,38.9,72.93,28.76,69.18l.43-5.47,11,.67L50.33,53.93,35.58,44l.1-2a2.35,2.35,0,0,1,.87-1.72,2.41,2.41,0,0,1,1.87-.5l22.51,3.66,6.87-6.86a15.19,15.19,0,0,1,4.85-2.89c1.76-.66,4.12-1.17,5.41.11s.77,3.65.11,5.41A15.31,15.31,0,0,1,75.28,44l-6.83,6.83,2.47,8.88-1.52.42-2.71-9.77,7.48-7.48a13.32,13.32,0,0,0,2.52-4.29c.68-1.78.77-3.22.25-3.73s-2-.43-3.73.24a13.5,13.5,0,0,0-4.29,2.53L61.48,45.1,38.16,41.31a.78.78,0,0,0-.62.16.82.82,0,0,0-.29.58l-.06,1.15L52.77,53.68,40.8,66l-10.16-.62-.22,2.73,9.71,3.59,3.59,9.71,2.73-.22L45.83,71l12.32-12,4.33,6.44-1.31.88L57.89,61.5,47.45,71.65l.67,11Z" fill="#fff"></path>
      <path d="M73.18,87.1a14.13,14.13,0,1,1,10-4.14h0A14,14,0,0,1,73.18,87.1Zm0-26.7a12.57,12.57,0,1,0,8.89,21.45h0A12.57,12.57,0,0,0,73.18,60.4Z" fill="#fff"></path>
      <polygon points="79.84 73.75 72.4 73.75 72.4 64.38 73.97 64.38 73.97 72.17 79.84 72.17 79.84 73.75" fill="#fff"></polygon>
    </g>
  </g>
</svg>
