<svg xmlns="http://www.w3.org/2000/svg" width="351.536" height="183.253" viewBox="0 0 351.536 183.253">
  <g id="Group_176" data-name="Group 176" transform="translate(0 0)">
    <path id="Path_85" data-name="Path 85" d="M741.545,524.278l11.9-.253c.151,0,15.187.253,21.032.253,3.244,0,10.844-.054,11.337-.544.621-.534,1.232-4.768,2.841-19.7l.844-7.765a.528.528,0,0,0-.471-.625.659.659,0,0,0-.771.5l-.843,7.684c-1.177,9.235-8.135,19.2-17.327,19.2-1.33,0-4.871-.065-8.3-.129-3.24-.06-6.308-.117-7.64-.122a81.36,81.36,0,0,0,.638-12.259V487.463c0-20.564.106-20.956,5.669-20.956h2.365c.437,0,.666-.271.666-.537s-.229-.538-.666-.538c-1.425,0-4.331.059-6.667.105-1.712.034-3.192.064-3.72.064-.731,0-3.9-.057-6.45-.1-1.915-.035-3.569-.065-3.855-.065a.549.549,0,1,0,0,1.075c5.316,0,5.417,0,5.417,7.529,0,2.428.069,5.848.136,9.156.06,3.024.119,5.881.119,7.735,0,.972.022,2.449.046,4.158.074,5.111.185,12.834-.131,17.2-.664,10.469-1.321,11.086-6.177,11.086-.546,0-.791.228-.791.453S741,524.278,741.545,524.278Z" transform="translate(-734.923 -455.25)" fill="#323330"/>
    <path id="Path_86" data-name="Path 86" d="M807.879,491.162c2.111-.465,3.318-.589,4.071.014.822.662,1.143,2.225,1.143,5.575V519.3c0,7.215-.339,8.373-5,8.373-.436,0-.664.271-.664.538s.227.537.664.537c1.428,0,3.694-.058,5.516-.105,1.335-.034,2.487-.064,3.014-.064s1.608.029,2.856.064c1.705.047,3.826.105,5.253.105a.737.737,0,0,0,.481-.156.5.5,0,0,0,.182-.381.587.587,0,0,0-.664-.538c-4.232,0-4.911-.568-4.911-8.373V486.109c0-.133-.074-.332-.426-.52-.372-.2-1.076-.377-1.342-.2a28.257,28.257,0,0,1-10.5,4.792c-.427.106-.561.4-.505.623C807.113,491.061,807.424,491.273,807.879,491.162Z" transform="translate(-749.83 -459.722)" fill="#323330"/>
    <path id="Path_87" data-name="Path 87" d="M817.438,473.744a4.592,4.592,0,1,0-4.549-4.549A4.5,4.5,0,0,0,817.438,473.744Z" transform="translate(-751.147 -455.054)" fill="#323330"/>
    <path id="Path_88" data-name="Path 88" d="M876.934,487.538a.541.541,0,1,0,0-1.075c-.247,0-1.328.029-2.579.063-1.742.047-3.91.1-4.6.1-.454,0-1.445-.014-2.605-.03-1.615-.024-3.624-.053-4.911-.053-.437,0-.666.271-.666.538s.229.537.668.537c2.145-.025,3.662.547,4.472,1.727,1.254,1.827.922,5.151-.987,9.878l-9.655,23.056-11.594-26.69c-1.654-3.743-2.479-6.112-1.806-7.146.493-.757,1.809-.91,3.773-.91.436,0,.664-.249.664-.5s-.228-.5-.664-.5c-1.208,0-3.434.027-5.4.05-1.446.018-2.711.033-3.217.033-.69,0-3.3-.058-5.4-.1-1.5-.033-2.8-.063-3.045-.063a.541.541,0,1,0,0,1.075c3.359-.082,5,.808,9.228,10.548l13.516,31a.436.436,0,0,0,.48.257h1.35a.436.436,0,0,0,.48-.257l12.335-29.233c3.639-8.734,6.557-12.32,10.05-12.32Z" transform="translate(-754.721 -459.98)" fill="#323330"/>
    <path id="Path_89" data-name="Path 89" d="M935.053,508.4a.973.973,0,0,0,.076-.916.307.307,0,0,0-.289-.125c-.238.028-.481.3-.664.74-5.208,11.269-11.7,16.3-21.057,16.3-11.374,0-20.282-8.056-20.282-18.34a30.542,30.542,0,0,1,.646-6.344H922.24c2.306,0,3.483-.877,3.7-2.757a9.246,9.246,0,0,0-2.4-7.028c-1.824-2.076-5.463-4.551-12.447-4.551a24.9,24.9,0,0,0-23.638,23.806c0,12.028,8.783,20.429,21.358,20.429C924.683,529.607,932.911,513.372,935.053,508.4Zm-41.319-9.683c2.133-7.1,7.587-11.171,14.994-11.171,6.518,0,9.555,4.492,9.555,7.528a4.126,4.126,0,0,1-.718,2.6,8.819,8.819,0,0,1-3.264.711c-2.369,0-4.761.062-7.532.134C903.151,498.607,899.057,498.714,893.734,498.716Z" transform="translate(-767.916 -459.735)" fill="#323330"/>
    <path id="Path_90" data-name="Path 90" d="M973.222,466.507h.17c4.418,0,5.224.619,11.508,16.706l15.547,40.976c.13.266.314.343.817.343h.676c.4,0,.536-.12.65-.347l12.523-27.882,12.02,27.964.021.043c.111.23.229.307.715.307h.845c.431,0,.6-.08.738-.355l15.8-40.794c4.653-12.2,7.975-16.96,11.845-16.96h.254a.584.584,0,0,0,.633-.557.479.479,0,0,0-.171-.368.693.693,0,0,0-.463-.15c-1.229,0-3.12.059-4.638.105-1.118.034-2.083.064-2.542.064-.706,0-2.69-.042-4.608-.082-2.005-.043-4.077-.087-4.85-.087-.29,0-1.172,0-1.172.663a.67.67,0,0,0,.749.664,6.5,6.5,0,0,0,.851-.129,10.316,10.316,0,0,1,1.514-.208c2.753,0,4.149,1.368,4.149,4.065,0,4.382-2.254,10.633-2.945,12.444l-12.839,33.453c-.073.22-.13.313-.189.313-.081,0-.2-.109-.277-.326l-11.46-26.627,3.944-9.317c4.041-10.148,7.046-13.922,11.086-13.922h2.2a.584.584,0,0,0,.633-.557.479.479,0,0,0-.171-.368.693.693,0,0,0-.463-.15c-1.169,0-3.444.056-5.451.1-1.449.036-2.7.065-3.164.065-.654,0-2.142-.039-3.717-.08-1.649-.044-3.352-.089-4.137-.089-.762,0-1.087.2-1.087.663,0,.4.211.581.664.581a5.275,5.275,0,0,0,.723-.1,8.735,8.735,0,0,1,1.3-.156c1.78,0,2.8,1.421,2.8,3.9,0,2.148-1.084,6.3-2.523,9.652l-3.321,8.1-3.482-8.1c-3.184-7.835-3.45-9.983-3.45-11.511,0-1.622,1.084-1.954,2.713-1.954h.676a.731.731,0,0,0,.481-.156.5.5,0,0,0,.182-.381.587.587,0,0,0-.663-.538c-1.428,0-3.986.087-6.04.157-1.507.051-2.808.1-3.336.1s-1.649-.044-2.948-.095c-1.775-.07-3.984-.157-5.413-.157-.489,0-.663.3-.663.579,0,.229.2.5.748.5h.676c4.1,0,4.431,0,9.99,12.657l6.56,15.393-9.689,21.4c-.074.222-.13.316-.189.316-.081,0-.2-.111-.274-.322l-10.9-28.549c-5.157-13.136-6.24-17.415-6.24-18.682.088-1.491,1.252-2.217,3.56-2.217h2.2a.7.7,0,0,0,.452-.142.46.46,0,0,0,.172-.36.634.634,0,0,0-.708-.574c-1.428,0-4.83.087-7.563.157-2,.051-3.734.1-4.261.1s-1.56-.044-2.756-.095c-1.635-.07-3.671-.157-5.1-.157a.513.513,0,0,0-.579.579C972.558,466.2,972.645,466.507,973.222,466.507Z" transform="translate(-787.056 -455.25)" fill="#323330"/>
    <path id="Path_91" data-name="Path 91" d="M1091.952,529.607c15.871,0,24.1-16.235,26.241-21.208a.973.973,0,0,0,.076-.916.309.309,0,0,0-.289-.125c-.238.028-.48.3-.663.74-5.209,11.269-11.7,16.3-21.057,16.3-11.373,0-20.281-8.056-20.281-18.34a30.509,30.509,0,0,1,.645-6.344h28.758c2.305,0,3.483-.877,3.7-2.757a9.249,9.249,0,0,0-2.405-7.028c-1.824-2.076-5.463-4.551-12.447-4.551a24.9,24.9,0,0,0-23.638,23.806C1070.594,521.207,1079.377,529.607,1091.952,529.607Zm-15.076-30.891c2.131-7.1,7.584-11.171,14.991-11.171,6.518,0,9.554,4.492,9.554,7.528a4.117,4.117,0,0,1-.718,2.6,8.78,8.78,0,0,1-3.262.711c-2.37,0-4.763.062-7.534.134C1086.291,498.607,1082.2,498.714,1076.876,498.716Z" transform="translate(-809.104 -459.735)" fill="#323330"/>
    <path id="Path_92" data-name="Path 92" d="M1131.766,457.216c1.925-.346,3.245-.524,4.027.132.859.717,1.193,2.483,1.193,6.3v47.468c0,8.535-.239,9.133-3.643,9.133-.436,0-.664.271-.664.538s.228.537.664.537c1.426,0,3.548-.058,5.252-.105,1.25-.034,2.328-.064,2.857-.064s1.412.029,2.438.064c1.4.047,3.144.105,4.572.105a.739.739,0,0,0,.482-.156.5.5,0,0,0,.182-.381.587.587,0,0,0-.664-.538c-4.417,0-4.827-.254-4.827-9.133V453.09c0-.133-.074-.331-.425-.519-.372-.2-1.078-.376-1.329-.208a31.494,31.494,0,0,1-10.163,3.782c-.462.058-.676.382-.641.658a.456.456,0,0,0,.215.333A.707.707,0,0,0,1131.766,457.216Z" transform="translate(-822.706 -452.296)" fill="#323330"/>
    <path id="Path_93" data-name="Path 93" d="M1156.817,457.216c1.925-.346,3.245-.524,4.028.132.859.717,1.193,2.483,1.193,6.3v47.468c0,8.535-.239,9.133-3.643,9.133-.436,0-.664.271-.664.538s.228.537.664.537c1.426,0,3.548-.058,5.252-.105,1.25-.034,2.328-.064,2.857-.064s1.412.029,2.438.064c1.4.047,3.145.105,4.572.105a.739.739,0,0,0,.482-.156.5.5,0,0,0,.182-.381c0-.267-.228-.538-.664-.538-4.417,0-4.827-.254-4.827-9.133V453.09c0-.133-.073-.331-.425-.519-.372-.2-1.078-.376-1.328-.208a31.5,31.5,0,0,1-10.163,3.782c-.462.058-.676.382-.64.658a.452.452,0,0,0,.214.333A.7.7,0,0,0,1156.817,457.216Z" transform="translate(-828.341 -452.296)" fill="#323330"/>
    <path id="Path_94" data-name="Path 94" d="M779.716,596.345c-.319-3.274-.41-4.14-.594-4.37l-.037-.047-.059-.011a29.891,29.891,0,0,0-4.5-.257c-.6,0-1.405.016-2.618.04-3.493.07-10.761.214-26.438.214-3.683,0-6.267-.031-8.344-.057-1.276-.016-2.314-.028-3.228-.028a.549.549,0,1,0,0,1.075h1.52c3.925,0,4.742,0,4.742,20.956v14.78c0,20.958-.5,20.958-4.4,20.958h-1.1c-.436,0-.664.271-.664.538s.228.538.664.538c1.368,0,3.673-.083,5.708-.157,1.456-.053,2.713-.1,3.246-.1.487,0,2.014.044,3.782.095,2.476.071,5.557.16,6.944.16.436,0,.664-.271.664-.538s-.228-.538-.664-.538H751.21c-3.827,0-4.318,0-4.318-20.958v-6.175h6.6c7.612,0,12.68,1.84,12.68,10.821v1.353a.584.584,0,1,0,1.16,0c0-.637-.108-3.579-.211-6.426s-.211-5.782-.211-6.414c0-.481.071-2.317.154-4.442.119-3.057.267-6.862.267-8.31a.584.584,0,1,0-1.16,0v1.181c0,6.547-2.156,10.907-12.68,10.907h-6.6v-7.276c0-3.083-.016-5.71-.028-7.949-.047-8.279-.064-11.376.859-12.305.449-.45,1.191-.45,2.219-.45h13.331c8.977,0,15.266,6.853,16.834,18.361l.677,5.495a.658.658,0,0,0,.769.495.528.528,0,0,0,.472-.622l-.676-5.575C780.477,604.15,780.019,599.453,779.716,596.345Z" transform="translate(-733.232 -483.639)" fill="#323330"/>
    <path id="Path_95" data-name="Path 95" d="M814.859,647.615a.5.5,0,0,0,.182-.382c0-.267-.228-.538-.664-.538-4.417,0-4.827-.253-4.827-9.133V579.538c0-.133-.074-.332-.426-.52-.371-.2-1.077-.375-1.328-.208a31.481,31.481,0,0,1-10.162,3.781c-.463.058-.677.383-.642.659a.452.452,0,0,0,.215.333.71.71,0,0,0,.475.081c1.922-.346,3.241-.526,4.027.131.858.718,1.192,2.484,1.192,6.3v47.467c0,8.451-.272,9.133-3.643,9.133-.436,0-.666.271-.666.538s.229.538.666.538c1.425,0,3.548-.059,5.252-.105,1.249-.034,2.328-.064,2.856-.064s1.412.03,2.438.064c1.4.046,3.145.105,4.572.105A.739.739,0,0,0,814.859,647.615Z" transform="translate(-747.571 -480.734)" fill="#323330"/>
    <path id="Path_96" data-name="Path 96" d="M866.453,612.911c-.288,0-1.459.029-2.815.064-1.807.046-4.054.1-4.786.1-.487,0-1.532-.029-2.743-.063-1.7-.047-3.807-.1-5.195-.1-.436,0-.666.271-.666.537s.229.538.666.538c2.238,0,3.821.686,4.706,2.039,1.321,2.018.987,5.442-.964,9.9l-9.317,20.961-11.09-24.595c-2.016-4.377-2.531-6.368-1.9-7.348.511-.8,1.862-.959,3.874-.959a.587.587,0,0,0,.664-.538c0-.267-.228-.537-.664-.537-1.328,0-3.813.057-5.81.1-1.468.034-2.735.064-3.228.064-.731,0-3.237-.057-5.251-.1-1.515-.035-2.823-.064-3.11-.064a.541.541,0,1,0,0,1.075c3.958-.081,5.03.723,9.734,10.97l13.4,29.667-.9,2.047h0c-3.7,8.37-6.812,9.957-11.258,9.957a8.082,8.082,0,0,1-3.868-1.219,8.159,8.159,0,0,0-3.9-1.23c-2.823,0-4.8,2.622-4.8,4.043,0,1.7,2.681,3.451,7.168,3.451,7.981,0,13.3-4.4,17.8-14.7L855.7,626.559c3.8-8.687,7.088-12.574,10.645-12.574l.1,0a.541.541,0,1,0,0-1.075Z" transform="translate(-752.122 -488.418)" fill="#323330"/>
    <path id="Path_97" data-name="Path 97" d="M947.508,590.79A30.491,30.491,0,0,0,926.2,642.738a29.327,29.327,0,0,0,20.8,8.587,30.392,30.392,0,0,0,21.438-51.939A29.672,29.672,0,0,0,947.508,590.79Zm22.055,30.31c0,8.475-2.189,15.739-6.332,21.007a20.423,20.423,0,0,1-16.568,8.059c-13.188,0-21.38-11.137-21.38-29.065,0-8.557,2.121-15.848,6.133-21.083a20,20,0,0,1,16.428-8.067,19.027,19.027,0,0,1,15.973,8.064C967.576,605.181,969.562,612.472,969.562,621.1Z" transform="translate(-774.644 -483.443)" fill="#323330"/>
    <path id="Path_98" data-name="Path 98" d="M1020.711,606.024h-.845c-1.579,0-3.062.022-4.5.045-1.284.019-2.5.038-3.706.04.1-12.345,3.147-18.6,9.048-18.6a39.02,39.02,0,0,1,7.8.977,24.444,24.444,0,0,0,4.359.628,5.148,5.148,0,0,0,4.718-4.464c0-1.388-4.624-2.356-8.773-2.356-9.636,0-20.7,11.337-23.271,23.82H1003.4l-3,4.117-.03.041v.052c0,.665.807.665,1.341.665h3.3v.688c0,.333.084,27.178.084,27.449,0,7.42,0,8.373-4.741,8.373-.436,0-.664.271-.664.538s.228.538.664.538c1.427,0,3.578-.059,5.306-.105,1.265-.034,2.358-.064,2.886-.064s1.667.03,2.986.064c1.8.046,4.035.105,5.46.105a.742.742,0,0,0,.483-.156.5.5,0,0,0,.183-.382c0-.267-.229-.538-.666-.538-4.772,0-5.162,0-5.247-8.373,0-.2-.082-20.336-.083-28.135,1.452,0,2.913.024,4.328.046,1.327.02,2.58.04,3.706.04h.07l.047-.052c.5-.545,1.029-1.1,1.535-1.635,1.581-1.663,2.477-2.625,2.477-3.033C1023.824,606.024,1023.707,606.024,1020.711,606.024Z" transform="translate(-793.158 -481.531)" fill="#323330"/>
    <path id="Path_99" data-name="Path 99" d="M1058.414,641.851a.63.63,0,0,0-.522.419c-1.866,5.433-5.031,8.677-8.467,8.677-3.489,0-5.332-3.159-5.332-9.133V615.451c1.972,0,5.556.039,7.949.064,1.184.012,2.063.022,2.283.022h.06l.045-.041c1.566-1.413,4.192-3.9,4.192-4.679a.259.259,0,0,0-.078-.195c-.15-.146-.5-.207-3.042-.13-2.729.083-8.582.084-11.24.084v-8.036c0-.074,0-.3-.172-.371s-.326.067-.441.183l-10.8,12.408a.484.484,0,0,0-.109.52.246.246,0,0,0,.221.172h4.488v26.616c0,8.17,2.549,11.813,8.265,11.813,6.018,0,10.956-5.674,13.57-10.983a.652.652,0,0,0-.049-.69A.893.893,0,0,0,1058.414,641.851Z" transform="translate(-800.582 -485.998)" fill="#323330"/>
    <path id="Path_100" data-name="Path 100" d="M1118.269,633.931a.306.306,0,0,0-.289-.126c-.238.029-.48.3-.663.741-5.209,11.269-11.7,16.294-21.057,16.294-11.373,0-20.281-8.056-20.281-18.339a30.521,30.521,0,0,1,.645-6.345h28.758c2.305,0,3.483-.876,3.7-2.756a9.251,9.251,0,0,0-2.405-7.029c-1.824-2.076-5.463-4.551-12.447-4.551a24.9,24.9,0,0,0-23.638,23.806c0,12.028,8.783,20.429,21.358,20.429,15.871,0,24.1-16.235,26.241-21.208A.972.972,0,0,0,1118.269,633.931Zm-41.393-8.765c2.131-7.1,7.584-11.173,14.991-11.173,6.518,0,9.554,4.492,9.554,7.529a4.12,4.12,0,0,1-.718,2.6,8.782,8.782,0,0,1-3.262.71c-2.37,0-4.763.063-7.534.135C1086.291,625.057,1082.2,625.164,1076.876,625.166Z" transform="translate(-809.104 -488.173)" fill="#323330"/>
    <path id="Path_101" data-name="Path 101" d="M1173.094,654.134c-1.252.04-2.115.019-2.713-.562-.838-.814-1.18-2.783-1.18-6.8V629.124c0-11.482-4.685-17.3-13.924-17.3-5.9,0-10.831,2.841-15.5,8.932a14.062,14.062,0,0,0-3.48-8.041.64.64,0,0,0-.417-.25h0a.45.45,0,0,0-.312.164,21.44,21.44,0,0,1-6.124,3.517.416.416,0,0,0-.242.3.547.547,0,0,0,.207.466c1.785,1.629,3.834,3.816,3.834,6.3V645c0,8.451-.272,9.133-3.643,9.133a.55.55,0,1,0,0,1.076c1.428,0,3.548-.059,5.254-.105,1.248-.034,2.326-.064,2.854-.064.79,0,2.649.059,4.144.106,1.07.033,1.994.064,2.276.064a.55.55,0,1,0,0-1.076h-4.234V622.251c4.13-5.526,7.548-7.58,12.595-7.58,3.717,0,9.967,1.768,10.063,13.61l.084,17.988c0,7.532-.948,7.866-4.233,7.866-.437,0-.664.271-.664.538s.228.538.664.538c1.426,0,3.227-.059,4.675-.105,1.06-.034,1.976-.064,2.5-.064.79,0,3.031.059,4.831.106,1.291.033,2.4.064,2.687.064a.587.587,0,0,0,.663-.538C1173.762,654.4,1173.534,654.134,1173.094,654.134Z" transform="translate(-822.226 -488.173)" fill="#323330"/>
  </g>
</svg>
